<?xml version="1.0" encoding="iso-8859-1"?>
<!-- Generator: Adobe Illustrator 19.0.0, SVG Export Plug-In . SVG Version: 6.00 Build 0)  -->
<svg version="1.1" id="Capa_1" xmlns="http://www.w3.org/2000/svg" xmlns:xlink="http://www.w3.org/1999/xlink" x="0px" y="0px"
	 viewBox="0 0 512 512" style="enable-background:new 0 0 512 512;" xml:space="preserve">
<g>
	<rect id="SVGCleanerId_0" x="93.087" y="69.817" style="fill:#81CB97;" width="46.548" height="46.548"/>
	<polygon style="fill:#81CB97;" points="0,256 0,302.548 0,349.087 0,395.635 46.548,395.635 46.548,349.087 46.548,302.548 
		46.548,256 	"/>
	<rect id="SVGCleanerId_1" x="372.409" y="69.817" style="fill:#81CB97;" width="46.548" height="46.548"/>
	<polygon style="fill:#81CB97;" points="465.452,256 465.452,302.548 465.452,349.087 465.452,395.635 512,395.635 512,349.087 
		512,302.548 512,256 	"/>
	<path id="SVGCleanerId_2" style="fill:#81CB97;" d="M418.869,209.479v-46.61h-46.521v-46.521h-46.521v46.521H186.174v-46.521
		h-46.521v46.521H93.131v46.61h-46.61V256h46.61v139.652h46.521v-46.521h232.695v46.521h46.521V256h46.61v-46.521H418.869z
		 M186.174,256h-46.521v-46.521h46.521V256z M372.348,256h-46.521v-46.521h46.521V256z"/>
	<polygon style="fill:#81CB97;" points="139.635,395.635 139.635,442.183 186.183,442.183 232.73,442.183 232.73,395.635 
		186.183,395.635 	"/>
	<polygon style="fill:#81CB97;" points="325.817,395.635 279.27,395.635 279.27,442.183 325.817,442.183 372.365,442.183 
		372.365,395.635 	"/>
	<g>
		<rect id="SVGCleanerId_0_1_" x="93.087" y="69.817" style="fill:#81CB97;" width="46.548" height="46.548"/>
	</g>
	<polygon style="fill:#81CB97;" points="0,256 0,302.548 0,349.087 0,395.635 46.548,395.635 46.548,349.087 46.548,302.548 
		46.548,256 	"/>
	<g>
		<rect id="SVGCleanerId_1_1_" x="372.409" y="69.817" style="fill:#81CB97;" width="46.548" height="46.548"/>
	</g>
	<polygon style="fill:#81CB97;" points="465.452,256 465.452,302.548 465.452,349.087 465.452,395.635 512,395.635 512,349.087 
		512,302.548 512,256 	"/>
	<g>
		<path id="SVGCleanerId_2_1_" style="fill:#81CB97;" d="M418.869,209.479v-46.61h-46.521v-46.521h-46.521v46.521H186.174v-46.521
			h-46.521v46.521H93.131v46.61h-46.61V256h46.61v139.652h46.521v-46.521h232.695v46.521h46.521V256h46.61v-46.521H418.869z
			 M186.174,256h-46.521v-46.521h46.521V256z M372.348,256h-46.521v-46.521h46.521V256z"/>
	</g>
	<polygon style="fill:#81CB97;" points="139.635,395.635 139.635,442.183 186.183,442.183 232.73,442.183 232.73,395.635 
		186.183,395.635 	"/>
	<polygon style="fill:#81CB97;" points="325.817,395.635 279.27,395.635 279.27,442.183 325.817,442.183 372.365,442.183 
		372.365,395.635 	"/>
</g>
<g>
</g>
<g>
</g>
<g>
</g>
<g>
</g>
<g>
</g>
<g>
</g>
<g>
</g>
<g>
</g>
<g>
</g>
<g>
</g>
<g>
</g>
<g>
</g>
<g>
</g>
<g>
</g>
<g>
</g>
</svg>
