<?xml version="1.0" encoding="iso-8859-1"?>
<!-- Generator: Adobe Illustrator 19.0.0, SVG Export Plug-In . SVG Version: 6.00 Build 0)  -->
<svg xmlns="http://www.w3.org/2000/svg" xmlns:xlink="http://www.w3.org/1999/xlink" version="1.1" id="Capa_1" x="0px" y="0px" viewBox="0 0 512 512" style="enable-background:new 0 0 512 512;" xml:space="preserve" width="512px" height="512px">
<g>
	<g>
		<g>
			<rect x="247.467" y="298.667" width="17.067" height="51.2" fill="#FFFFFF"/>
			<rect x="213.026" y="366.626" width="17.681" height="17.681" fill="#FFFFFF"/>
			<path d="M492.435,284.098c-1.601-1.601-3.772-2.499-6.035-2.498h-34.133c-2.264-0.001-4.435,0.897-6.035,2.498     s-2.499,3.772-2.498,6.035V384h-17.067v-25.6c0.001-2.264-0.897-4.435-2.498-6.035c-1.601-1.601-3.772-2.499-6.035-2.498H384     v-128c0.001-2.264-0.897-4.435-2.498-6.035s-3.772-2.499-6.035-2.498h-34.133c-2.264-0.001-4.435,0.897-6.035,2.498     c-1.601,1.601-2.499,3.772-2.498,6.035v93.867h-17.067v-204.8c0.001-2.264-0.897-4.435-2.498-6.035s-3.772-2.499-6.035-2.498     h-25.6V8.533c0.001-2.264-0.897-4.435-2.498-6.035S275.33-0.001,273.067,0h-34.133c-2.264-0.001-4.435,0.897-6.035,2.498     s-2.499,3.772-2.498,6.035V102.4h-25.6c-2.264-0.001-4.435,0.897-6.035,2.498s-2.499,3.772-2.498,6.035v204.8H179.2v-93.867     c0.001-2.264-0.897-4.435-2.498-6.035s-3.772-2.499-6.035-2.498h-34.133c-2.264-0.001-4.435,0.897-6.035,2.498     s-2.499,3.772-2.498,6.035V358.4H93.867c-2.264-0.001-4.435,0.897-6.035,2.498s-2.499,3.772-2.498,6.035v25.6H68.267v-102.4     c0.001-2.264-0.897-4.435-2.498-6.035s-3.772-2.499-6.035-2.498H25.6c-2.264-0.001-4.435,0.897-6.035,2.498     s-2.499,3.772-2.498,6.035V435.2c-0.001,2.264,0.897,4.435,2.498,6.035s3.772,2.499,6.035,2.498h59.733v25.6     c-0.001,2.264,0.897,4.435,2.498,6.035c1.601,1.601,3.772,2.499,6.035,2.498H153.6v25.6c-0.001,2.264,0.897,4.435,2.498,6.035     c1.601,1.601,3.772,2.499,6.035,2.498H204.8c2.264,0.001,4.435-0.897,6.035-2.498c1.601-1.601,2.499-3.772,2.498-6.035v-25.6     H230.4v25.6c-0.001,2.264,0.897,4.435,2.498,6.035c1.601,1.601,3.772,2.499,6.035,2.498h34.133     c2.264,0.001,4.435-0.897,6.035-2.498c1.601-1.601,2.499-3.772,2.498-6.035v-25.6h17.067v25.6     c-0.001,2.264,0.897,4.435,2.498,6.035c1.601,1.601,3.772,2.499,6.035,2.498h34.133c2.264,0.001,4.435-0.897,6.035-2.498     c1.601-1.601,2.499-3.772,2.498-6.035v-25.6h68.267c2.264,0.001,4.435-0.897,6.035-2.498c1.601-1.601,2.499-3.772,2.498-6.035     v-25.6H486.4c2.264,0.001,4.435-0.897,6.035-2.498c1.601-1.601,2.499-3.772,2.498-6.035V290.133     C494.935,287.87,494.036,285.699,492.435,284.098z M51.2,316.042H34.133v-17.375H51.2V316.042z M162.133,247.775h-17.067V230.4     h17.067V247.775z M196.267,494.933h-17.375v-17.375h17.375V494.933z M230.708,460.8h-17.683v-17.375h17.683V460.8z      M298.975,460.8h-17.683v-17.375h17.683V460.8z M315.425,392.533c-0.001,4.542-3.683,8.224-8.225,8.225h-34.133     c-4.542-0.001-8.224-3.683-8.225-8.225v-25.6h-17.683v25.6c-0.001,4.542-3.683,8.224-8.225,8.225H204.8     c-4.542-0.001-8.224-3.683-8.225-8.225V358.4c0.001-4.542,3.683-8.224,8.225-8.225h25.6v-60.042     c-0.001-2.264,0.897-4.435,2.498-6.035s3.772-2.499,6.035-2.498h34.133c2.264-0.001,4.435,0.897,6.035,2.498     s2.499,3.772,2.498,6.035v60.042h25.6c4.542,0.001,8.224,3.683,8.225,8.225V392.533z M332.8,494.933h-17.067v-17.375H332.8     V494.933z M366.933,247.775h-17.067V230.4h17.067V247.775z M477.867,316.042H460.8v-17.375h17.067V316.042z" fill="#FFFFFF"/>
			<rect x="281.293" y="366.626" width="17.681" height="17.681" fill="#FFFFFF"/>
		</g>
	</g>
</g>
<g>
</g>
<g>
</g>
<g>
</g>
<g>
</g>
<g>
</g>
<g>
</g>
<g>
</g>
<g>
</g>
<g>
</g>
<g>
</g>
<g>
</g>
<g>
</g>
<g>
</g>
<g>
</g>
<g>
</g>
</svg>
